<?xml version="1.0" encoding="utf-8"?>
<!-- Generator: Adobe Illustrator 16.0.0, SVG Export Plug-In . SVG Version: 6.00 Build 0)  -->
<!DOCTYPE svg PUBLIC "-//W3C//DTD SVG 1.1//EN" "http://www.w3.org/Graphics/SVG/1.1/DTD/svg11.dtd">
<svg version="1.1" id="레이어_1" xmlns="http://www.w3.org/2000/svg" xmlns:xlink="http://www.w3.org/1999/xlink" x="0px"
	 y="0px" width="157.351px" height="38.921px" viewBox="0 0 157.351 38.921" enable-background="new 0 0 157.351 38.921"
	 xml:space="preserve">
<g>
	<g>
		<path d="M18.273,10.176c-0.573-1.099-1.618-1.648-3.135-1.648c-0.835,0-1.524,0.225-2.066,0.673
			c-0.541,0.449-0.968,1.177-1.276,2.183c-0.311,1.006-0.527,2.322-0.65,3.947c-0.124,1.625-0.186,3.614-0.186,5.967
			c0,2.508,0.085,4.535,0.255,6.083c0.17,1.549,0.434,2.748,0.79,3.599c0.355,0.853,0.805,1.425,1.347,1.718
			c0.541,0.296,1.168,0.442,1.88,0.442c0.589,0,1.139-0.101,1.649-0.303c0.511-0.2,0.951-0.604,1.323-1.207
			c0.371-0.604,0.665-1.455,0.882-2.554s0.325-2.546,0.325-4.342h6.687c0,1.796-0.139,3.499-0.418,5.107
			c-0.278,1.61-0.797,3.019-1.555,4.226c-0.76,1.207-1.828,2.152-3.204,2.833c-1.379,0.681-3.166,1.021-5.363,1.021
			c-2.508,0-4.505-0.402-5.991-1.208c-1.485-0.804-2.623-1.965-3.412-3.482c-0.79-1.516-1.301-3.327-1.533-5.433
			c-0.232-2.104-0.348-4.427-0.348-6.966c0-2.507,0.115-4.82,0.348-6.941c0.232-2.12,0.743-3.939,1.533-5.456
			c0.789-1.517,1.927-2.701,3.412-3.553c1.486-0.851,3.483-1.276,5.991-1.276c2.383,0,4.264,0.387,5.642,1.16
			c1.377,0.774,2.406,1.758,3.088,2.949c0.681,1.191,1.106,2.477,1.277,3.854c0.169,1.378,0.255,2.67,0.255,3.878h-6.687
			C19.133,13.031,18.846,11.275,18.273,10.176z"/>
		<path d="M29.557,13.891c0.232-2.12,0.743-3.939,1.533-5.456c0.789-1.517,1.927-2.701,3.412-3.553
			c1.486-0.851,3.482-1.276,5.99-1.276s4.505,0.426,5.99,1.276c1.486,0.852,2.624,2.036,3.413,3.553s1.301,3.336,1.532,5.456
			c0.232,2.121,0.349,4.435,0.349,6.941c0,2.539-0.116,4.861-0.349,6.966c-0.231,2.105-0.743,3.917-1.532,5.433
			c-0.789,1.518-1.927,2.679-3.413,3.482c-1.485,0.806-3.482,1.208-5.99,1.208s-4.504-0.402-5.99-1.208
			c-1.485-0.804-2.623-1.965-3.412-3.482c-0.79-1.516-1.301-3.327-1.533-5.433c-0.232-2.104-0.348-4.427-0.348-6.966
			C29.209,18.325,29.324,16.012,29.557,13.891z M36.058,26.521c0.108,1.563,0.325,2.832,0.65,3.808
			c0.325,0.975,0.789,1.688,1.393,2.136c0.604,0.449,1.4,0.674,2.392,0.674c0.99,0,1.788-0.225,2.392-0.674
			c0.604-0.448,1.068-1.161,1.394-2.136c0.324-0.976,0.541-2.244,0.649-3.808s0.163-3.46,0.163-5.689
			c0-2.229-0.055-4.116-0.163-5.664c-0.108-1.549-0.325-2.817-0.649-3.809c-0.325-0.99-0.79-1.71-1.394-2.159
			c-0.604-0.448-1.401-0.673-2.392-0.673c-0.991,0-1.788,0.225-2.392,0.673c-0.604,0.449-1.067,1.169-1.393,2.159
			c-0.325,0.991-0.542,2.26-0.65,3.809c-0.108,1.548-0.162,3.436-0.162,5.664C35.896,23.062,35.949,24.958,36.058,26.521z"/>
		<path d="M68.075,4.255c2.786,0,4.953,0.704,6.501,2.113c1.548,1.408,2.322,3.552,2.322,6.431c0,2.229-0.449,4.048-1.347,5.457
			c-0.898,1.408-2.292,2.314-4.18,2.716v0.093c1.672,0.248,2.895,0.79,3.669,1.625c0.773,0.836,1.253,2.183,1.439,4.04
			c0.062,0.62,0.108,1.294,0.14,2.021c0.03,0.728,0.061,1.54,0.093,2.438c0.061,1.765,0.154,3.111,0.278,4.04
			c0.186,0.929,0.588,1.563,1.207,1.904v0.278h-7.244c-0.341-0.465-0.557-0.998-0.649-1.603c-0.094-0.604-0.155-1.23-0.187-1.88
			l-0.186-6.362c-0.063-1.3-0.387-2.321-0.976-3.064c-0.588-0.743-1.578-1.114-2.971-1.114H62.41V37.41h-6.687V4.255H68.075z
			 M65.196,18.743c1.609,0,2.848-0.379,3.715-1.138c0.866-0.759,1.3-2.035,1.3-3.831c0-3.065-1.548-4.598-4.644-4.598H62.41v9.566
			H65.196z"/>
		<path d="M97.33,26.962h0.093V4.255h6.13V37.41h-7.615l-8.174-23.218h-0.093V37.41h-6.129V4.255h7.708L97.33,26.962z"/>
		<path d="M119.479,4.255c2.321,0,4.194,0.38,5.619,1.138c1.423,0.759,2.53,1.842,3.319,3.251c0.79,1.409,1.324,3.104,1.603,5.085
			c0.278,1.98,0.418,4.194,0.418,6.64c0,2.91-0.179,5.441-0.534,7.592c-0.356,2.152-0.968,3.924-1.834,5.317
			c-0.867,1.393-2.028,2.431-3.483,3.111s-3.296,1.021-5.525,1.021h-10.541V4.255H119.479z M118.18,32.488
			c1.176,0,2.119-0.201,2.832-0.604c0.712-0.401,1.277-1.067,1.694-1.996c0.419-0.929,0.697-2.151,0.837-3.669
			c0.139-1.516,0.209-3.405,0.209-5.665c0-1.888-0.063-3.544-0.187-4.969c-0.124-1.423-0.38-2.607-0.766-3.552
			c-0.388-0.944-0.96-1.656-1.718-2.137c-0.76-0.479-1.773-0.72-3.042-0.72h-2.833v23.312H118.18z"/>
		<path d="M153.377,9.734h-11.841v7.801h11.145v5.48h-11.145v8.915h11.984v5.479H134.85V4.255h18.527V9.734z"/>
	</g>
	<path fill="#E83828" d="M40.44,28.857L40.44,28.857c-1.208,0-2.196-0.988-2.196-2.196V15.173c0-1.208,0.988-2.196,2.196-2.196l0,0
		c1.208,0,2.196,0.988,2.196,2.196v11.488C42.637,27.869,41.648,28.857,40.44,28.857z"/>
</g>
</svg>
